<?xml version="1.0" encoding="utf-8"?>
<!-- Generator: Adobe Illustrator 16.0.0, SVG Export Plug-In . SVG Version: 6.00 Build 0)  -->
<!DOCTYPE svg PUBLIC "-//W3C//DTD SVG 1.1//EN" "http://www.w3.org/Graphics/SVG/1.1/DTD/svg11.dtd">
<svg version="1.1" id="Capa_1" xmlns="http://www.w3.org/2000/svg" xmlns:xlink="http://www.w3.org/1999/xlink" x="0px" y="0px"
	 width="47.125px" height="19.761px" viewBox="0 0 47.125 19.761" enable-background="new 0 0 47.125 19.761" xml:space="preserve">
<g>
	<defs>
		<rect id="SVGID_1_" width="47.125" height="19.761"/>
	</defs>
	<clipPath id="SVGID_2_">
		<use xlink:href="#SVGID_1_"  overflow="visible"/>
	</clipPath>
	<path clip-path="url(#SVGID_2_)" fill="#FFFFFF" d="M14.247,10.536c-0.055,0-0.097,0.016-0.126,0.046
		c-0.029,0.031-0.049,0.068-0.06,0.113c-0.011,0.043-0.017,0.091-0.017,0.142v0.138v1.915c0,0.443-0.121,0.781-0.363,1.015
		c-0.244,0.233-0.584,0.351-1.022,0.351c-0.442,0-0.783-0.119-1.024-0.357c-0.241-0.236-0.362-0.575-0.362-1.018v-2.075
		c0-0.08-0.008-0.145-0.027-0.195c-0.018-0.049-0.075-0.073-0.17-0.073h-0.082V10.48h1.019v0.056c-0.058,0-0.105,0.002-0.14,0.005
		c-0.035,0.004-0.062,0.016-0.082,0.033c-0.02,0.019-0.034,0.046-0.041,0.082c-0.007,0.037-0.011,0.087-0.011,0.148v2.085
		c0,0.336,0.077,0.603,0.233,0.797c0.155,0.196,0.408,0.293,0.758,0.293c0.322,0,0.571-0.09,0.747-0.272
		c0.178-0.184,0.266-0.434,0.266-0.75v-1.982v-0.187c0-0.056-0.008-0.101-0.024-0.138c-0.017-0.035-0.045-0.064-0.085-0.084
		c-0.04-0.021-0.099-0.03-0.176-0.03V10.48h0.872v0.056H14.247z"/>
	<path clip-path="url(#SVGID_2_)" fill="#FFFFFF" d="M18.168,10.56c-0.041,0.016-0.069,0.041-0.085,0.074
		c-0.017,0.032-0.026,0.074-0.027,0.126c-0.002,0.052-0.003,0.11-0.003,0.181v3.275h-0.28l-2.195-3.145v2.668
		c0,0.069,0,0.128,0.002,0.178c0.002,0.049,0.011,0.09,0.027,0.123c0.017,0.033,0.045,0.057,0.085,0.071s0.097,0.021,0.17,0.021
		v0.054H14.98v-0.054c0.077,0,0.136-0.007,0.176-0.021c0.04-0.015,0.069-0.037,0.088-0.068c0.018-0.031,0.028-0.071,0.029-0.12
		c0.002-0.05,0.003-0.111,0.003-0.184v-2.975c-0.022-0.047-0.04-0.086-0.054-0.117c-0.015-0.031-0.032-0.055-0.05-0.072
		c-0.018-0.016-0.041-0.026-0.068-0.032c-0.028-0.005-0.069-0.009-0.124-0.009V10.48h0.724c0.335,0.508,0.676,1.006,1.024,1.496
		c0.346,0.489,0.688,0.987,1.023,1.495v-2.53c0-0.072,0-0.135-0.002-0.187s-0.011-0.093-0.028-0.126
		c-0.016-0.033-0.045-0.057-0.087-0.071s-0.101-0.022-0.178-0.022V10.48h0.887v0.055C18.266,10.535,18.208,10.543,18.168,10.56"/>
	<path clip-path="url(#SVGID_2_)" fill="#FFFFFF" d="M19.017,14.188v-0.056c0.062,0,0.112-0.001,0.15-0.005
		c0.039-0.003,0.069-0.013,0.091-0.029s0.036-0.043,0.044-0.079c0.007-0.037,0.011-0.088,0.011-0.153v-3.062
		c0-0.066-0.004-0.117-0.011-0.153c-0.008-0.037-0.022-0.063-0.044-0.08s-0.052-0.026-0.091-0.03
		c-0.038-0.003-0.088-0.005-0.15-0.005v-0.055h1.062v0.055c-0.062,0-0.112,0.002-0.15,0.005c-0.038,0.004-0.069,0.014-0.091,0.03
		s-0.036,0.043-0.044,0.08c-0.007,0.036-0.01,0.087-0.01,0.153v3.062c0,0.065,0.003,0.116,0.01,0.153
		c0.008,0.036,0.022,0.062,0.044,0.079s0.053,0.026,0.091,0.029c0.038,0.004,0.088,0.005,0.15,0.005v0.056H19.017z"/>
	<path clip-path="url(#SVGID_2_)" fill="#FFFFFF" d="M23.986,10.601c-0.035,0.045-0.065,0.098-0.09,0.159l-1.342,3.466h-0.225
		l-1.413-3.455c-0.029-0.07-0.064-0.125-0.106-0.168c-0.042-0.041-0.102-0.063-0.178-0.068V10.48h0.969v0.055
		c-0.036,0-0.071,0.002-0.104,0.004c-0.033,0.002-0.06,0.009-0.082,0.021c-0.022,0.014-0.036,0.032-0.041,0.057
		c-0.006,0.027,0.001,0.062,0.019,0.104l1.117,2.815l1.03-2.694c0.04-0.103,0.049-0.177,0.027-0.226
		c-0.022-0.047-0.091-0.074-0.208-0.082V10.48h0.79v0.055C24.075,10.535,24.021,10.557,23.986,10.601"/>
	<path clip-path="url(#SVGID_2_)" fill="#FFFFFF" d="M26.77,14.188h-2.496v-0.056c0.113,0,0.184-0.014,0.213-0.046
		c0.029-0.03,0.045-0.104,0.045-0.221v-3.062c0-0.117-0.016-0.191-0.045-0.223s-0.1-0.046-0.213-0.046v-0.055h2.441l0.006,0.563
		h-0.076c-0.018-0.139-0.061-0.224-0.129-0.254c-0.068-0.031-0.166-0.047-0.293-0.047h-1.105c-0.062,0-0.098,0.006-0.107,0.02
		c-0.01,0.013-0.014,0.049-0.014,0.106v1.254h1.111c0.059,0,0.109-0.002,0.154-0.008c0.043-0.006,0.078-0.018,0.105-0.035
		c0.027-0.019,0.049-0.046,0.064-0.083c0.014-0.037,0.025-0.085,0.031-0.147h0.072v0.826h-0.072
		c-0.006-0.065-0.018-0.116-0.031-0.152c-0.016-0.037-0.037-0.065-0.064-0.085c-0.027-0.021-0.061-0.033-0.104-0.039
		c-0.041-0.005-0.094-0.008-0.156-0.008h-1.111v1.43c0,0.032,0.01,0.057,0.029,0.073c0.021,0.017,0.045,0.026,0.072,0.029
		c0.025,0.005,0.057,0.006,0.088,0.003c0.031-0.002,0.057-0.003,0.078-0.003h0.904c0.088,0,0.164-0.004,0.227-0.013
		c0.064-0.009,0.123-0.029,0.174-0.058s0.096-0.068,0.137-0.117c0.039-0.05,0.078-0.116,0.115-0.2h0.088L26.77,14.188z"/>
	<path clip-path="url(#SVGID_2_)" fill="#FFFFFF" d="M29.702,14.188c-0.088-0.193-0.176-0.367-0.264-0.522
		c-0.088-0.156-0.184-0.301-0.285-0.436c-0.102-0.136-0.213-0.265-0.334-0.39c-0.121-0.124-0.258-0.253-0.41-0.388l-0.395,0.005
		v1.408c0,0.061,0.004,0.11,0.012,0.146c0.006,0.036,0.02,0.065,0.037,0.082c0.018,0.02,0.045,0.03,0.082,0.034
		c0.037,0.003,0.084,0.004,0.143,0.004v0.056h-0.996v-0.056c0.055,0,0.1-0.001,0.133-0.007c0.035-0.006,0.062-0.018,0.08-0.035
		c0.018-0.019,0.031-0.045,0.035-0.081c0.006-0.034,0.01-0.083,0.01-0.144v-3.062c0-0.059-0.004-0.106-0.01-0.143
		c-0.004-0.036-0.018-0.064-0.035-0.082s-0.045-0.031-0.08-0.036c-0.033-0.005-0.078-0.008-0.133-0.008V10.48H28.6
		c0.16,0,0.314,0.019,0.463,0.053c0.148,0.035,0.277,0.091,0.391,0.167c0.113,0.077,0.205,0.177,0.271,0.302
		c0.068,0.124,0.102,0.277,0.102,0.46c0,0.138-0.025,0.259-0.076,0.364c-0.051,0.103-0.121,0.19-0.209,0.263
		c-0.088,0.071-0.188,0.128-0.299,0.172c-0.115,0.043-0.234,0.075-0.357,0.094c0.105,0.088,0.191,0.161,0.256,0.225
		c0.066,0.061,0.125,0.121,0.174,0.178s0.098,0.115,0.145,0.174c0.047,0.062,0.104,0.132,0.17,0.211
		c0.072,0.093,0.143,0.195,0.209,0.311c0.064,0.115,0.127,0.222,0.184,0.323c0.055,0.101,0.107,0.186,0.154,0.255
		c0.049,0.068,0.094,0.103,0.139,0.103v0.056H29.702z M28.014,12.195h0.264c0.131,0,0.26-0.013,0.385-0.035
		c0.127-0.025,0.24-0.066,0.342-0.126c0.104-0.062,0.186-0.143,0.248-0.244c0.061-0.103,0.092-0.229,0.092-0.383
		c0-0.136-0.025-0.247-0.076-0.334c-0.051-0.089-0.119-0.156-0.205-0.206c-0.086-0.049-0.184-0.083-0.293-0.102
		c-0.109-0.018-0.221-0.027-0.334-0.027h-0.109c-0.037,0-0.076,0.002-0.115,0.006c-0.041,0.004-0.078,0.013-0.113,0.027
		c-0.033,0.015-0.062,0.035-0.084,0.061V12.195z"/>
	<path clip-path="url(#SVGID_2_)" fill="#FFFFFF" d="M30.977,14.115c-0.02,0.017-0.027,0.039-0.027,0.067h-0.066l-0.027-0.799
		l0.012-0.017h0.049c0.066,0.157,0.154,0.283,0.266,0.378s0.229,0.164,0.354,0.206c0.123,0.042,0.25,0.059,0.379,0.052
		c0.127-0.008,0.242-0.038,0.346-0.094c0.105-0.055,0.189-0.13,0.252-0.228c0.064-0.096,0.096-0.211,0.096-0.342
		c0-0.157-0.043-0.288-0.129-0.395c-0.086-0.105-0.191-0.201-0.32-0.287c-0.127-0.086-0.268-0.168-0.418-0.246
		c-0.152-0.079-0.291-0.166-0.42-0.263c-0.127-0.098-0.234-0.21-0.32-0.341c-0.086-0.129-0.127-0.291-0.127-0.483
		c0-0.144,0.029-0.271,0.09-0.382c0.061-0.11,0.139-0.207,0.238-0.286c0.098-0.081,0.211-0.142,0.338-0.185
		c0.125-0.041,0.254-0.062,0.385-0.062c0.076,0,0.152,0.006,0.227,0.02c0.076,0.012,0.148,0.029,0.223,0.051
		c0.006,0.004,0.027,0.011,0.061,0.02c0.031,0.01,0.068,0.02,0.105,0.031c0.039,0.01,0.074,0.021,0.107,0.029
		c0.033,0.01,0.051,0.014,0.055,0.014c0.062-0.008,0.098-0.042,0.104-0.104h0.061c0.016,0.135,0.029,0.273,0.041,0.416
		c0.014,0.143,0.016,0.281,0.008,0.416h-0.059c-0.049-0.139-0.119-0.254-0.215-0.345c-0.094-0.092-0.199-0.161-0.314-0.208
		c-0.115-0.048-0.234-0.072-0.359-0.072c-0.119,0-0.23,0.022-0.33,0.066c-0.102,0.044-0.182,0.109-0.248,0.197
		c-0.062,0.088-0.096,0.195-0.096,0.322c0,0.1,0.027,0.187,0.08,0.26c0.053,0.076,0.115,0.145,0.189,0.207
		c0.094,0.075,0.195,0.147,0.301,0.213c0.105,0.066,0.213,0.128,0.322,0.187l-0.037-0.017c0.119,0.062,0.236,0.13,0.348,0.203
		c0.111,0.071,0.211,0.154,0.299,0.246c0.088,0.091,0.156,0.194,0.207,0.31s0.078,0.247,0.078,0.396c0,0.158-0.035,0.298-0.105,0.42
		c-0.068,0.122-0.16,0.226-0.27,0.31c-0.113,0.084-0.238,0.147-0.375,0.191c-0.141,0.044-0.281,0.066-0.424,0.066
		c-0.152,0-0.299-0.019-0.438-0.055c-0.139-0.037-0.281-0.075-0.428-0.115C31.016,14.088,30.995,14.097,30.977,14.115"/>
	<path clip-path="url(#SVGID_2_)" fill="#FFFFFF" d="M33.594,14.188v-0.056c0.062,0,0.113-0.001,0.15-0.005
		c0.037-0.003,0.068-0.013,0.09-0.029c0.023-0.017,0.037-0.043,0.045-0.079c0.008-0.037,0.01-0.088,0.01-0.153v-3.062
		c0-0.066-0.002-0.117-0.01-0.153c-0.008-0.037-0.021-0.063-0.045-0.08c-0.021-0.017-0.053-0.026-0.09-0.03
		c-0.037-0.003-0.088-0.005-0.15-0.005v-0.055h1.062v0.055c-0.062,0-0.113,0.002-0.15,0.005c-0.039,0.004-0.068,0.014-0.09,0.03
		c-0.023,0.017-0.037,0.043-0.045,0.08c-0.008,0.036-0.01,0.087-0.01,0.153v3.062c0,0.065,0.002,0.116,0.01,0.153
		c0.008,0.036,0.021,0.062,0.045,0.079c0.021,0.017,0.051,0.026,0.09,0.029c0.037,0.004,0.088,0.005,0.15,0.005v0.056H33.594z"/>
	<path clip-path="url(#SVGID_2_)" fill="#FFFFFF" d="M35.34,14.133c0.055,0,0.102-0.001,0.137-0.005
		c0.037-0.004,0.064-0.016,0.084-0.033c0.018-0.019,0.029-0.046,0.037-0.082s0.012-0.086,0.012-0.148v-3.061
		c0-0.062-0.004-0.112-0.012-0.148c-0.008-0.037-0.02-0.063-0.037-0.082c-0.02-0.019-0.047-0.029-0.084-0.033
		c-0.035-0.004-0.082-0.006-0.137-0.006v-0.054h1.271c0.303,0,0.58,0.037,0.83,0.112c0.25,0.074,0.465,0.189,0.643,0.342
		c0.18,0.152,0.318,0.348,0.416,0.581c0.1,0.233,0.148,0.508,0.148,0.827c0,0.266-0.043,0.515-0.127,0.747
		c-0.084,0.231-0.229,0.437-0.438,0.616c-0.211,0.183-0.449,0.309-0.711,0.378c-0.264,0.068-0.531,0.104-0.807,0.104H35.34V14.133z
		 M36.075,13.794c0,0.031,0.014,0.059,0.039,0.076c0.025,0.019,0.057,0.031,0.092,0.04c0.037,0.011,0.074,0.016,0.111,0.018
		c0.035,0.002,0.062,0.003,0.082,0.003c0.266,0,0.508-0.031,0.727-0.091c0.221-0.061,0.406-0.154,0.559-0.284
		c0.154-0.13,0.273-0.296,0.357-0.499c0.084-0.202,0.125-0.447,0.125-0.731c0-0.27-0.039-0.505-0.119-0.703
		c-0.082-0.198-0.195-0.364-0.344-0.496c-0.146-0.131-0.326-0.229-0.535-0.293c-0.211-0.063-0.445-0.096-0.705-0.096
		c-0.064,0-0.133,0.006-0.203,0.016c-0.068,0.012-0.131,0.039-0.186,0.082V13.794z"/>
	<path clip-path="url(#SVGID_2_)" fill="#FFFFFF" d="M41.342,14.188v-0.055c0.084,0,0.146-0.015,0.188-0.047
		c0.039-0.03,0.039-0.092,0-0.183l-0.34-0.833h-1.648l-0.307,0.767c-0.041,0.096-0.053,0.168-0.035,0.22
		c0.016,0.051,0.082,0.076,0.199,0.076v0.055h-0.766v-0.055c0.043-0.004,0.08-0.016,0.111-0.038
		c0.031-0.021,0.059-0.048,0.082-0.076c0.023-0.029,0.045-0.063,0.061-0.1s0.031-0.072,0.047-0.108l1.402-3.368h0.301l1.457,3.51
		c0.039,0.099,0.117,0.159,0.234,0.181v0.055H41.342z M40.374,11.018l-0.723,1.785h1.445L40.374,11.018z"/>
	<path clip-path="url(#SVGID_2_)" fill="#FFFFFF" d="M42.668,14.133c0.055,0,0.1-0.001,0.137-0.005
		c0.035-0.004,0.064-0.016,0.082-0.033c0.018-0.019,0.031-0.046,0.039-0.082c0.006-0.036,0.01-0.086,0.01-0.148v-3.061
		c0-0.062-0.004-0.112-0.01-0.148c-0.008-0.037-0.021-0.063-0.039-0.082s-0.047-0.029-0.082-0.033
		c-0.037-0.004-0.082-0.006-0.137-0.006v-0.054h1.271c0.303,0,0.578,0.037,0.828,0.112c0.25,0.074,0.465,0.189,0.645,0.342
		c0.178,0.152,0.316,0.348,0.416,0.581c0.098,0.233,0.148,0.508,0.148,0.827c0,0.266-0.043,0.515-0.127,0.747
		c-0.084,0.231-0.23,0.437-0.438,0.616c-0.213,0.183-0.449,0.309-0.713,0.378c-0.262,0.068-0.531,0.104-0.805,0.104h-1.227V14.133z
		 M43.403,13.794c0,0.031,0.012,0.059,0.037,0.076c0.025,0.019,0.057,0.031,0.094,0.04c0.037,0.011,0.072,0.016,0.109,0.018
		s0.064,0.003,0.082,0.003c0.268,0,0.51-0.031,0.729-0.091c0.219-0.061,0.406-0.154,0.559-0.284c0.154-0.13,0.271-0.296,0.355-0.499
		c0.084-0.202,0.127-0.447,0.127-0.731c0-0.27-0.041-0.505-0.121-0.703s-0.193-0.364-0.342-0.496
		c-0.148-0.131-0.326-0.229-0.537-0.293c-0.209-0.063-0.445-0.096-0.703-0.096c-0.066,0-0.133,0.006-0.203,0.016
		c-0.068,0.012-0.131,0.039-0.186,0.082V13.794z"/>
	<path clip-path="url(#SVGID_2_)" fill="#FFFFFF" d="M11.01,19.304c0.055,0,0.101-0.002,0.137-0.005
		c0.036-0.004,0.064-0.016,0.082-0.033c0.018-0.02,0.031-0.046,0.038-0.082c0.008-0.036,0.012-0.086,0.012-0.149v-3.06
		c0-0.063-0.004-0.112-0.012-0.149c-0.007-0.036-0.02-0.062-0.038-0.082c-0.018-0.018-0.046-0.028-0.082-0.031
		c-0.036-0.004-0.082-0.007-0.137-0.007v-0.054h1.271c0.302,0,0.579,0.037,0.829,0.112s0.465,0.188,0.644,0.342
		c0.178,0.153,0.317,0.347,0.416,0.581c0.098,0.233,0.148,0.508,0.148,0.826c0,0.266-0.042,0.516-0.126,0.748
		c-0.084,0.23-0.23,0.437-0.438,0.616c-0.212,0.183-0.449,0.309-0.712,0.378c-0.263,0.068-0.531,0.104-0.805,0.104H11.01V19.304z
		 M11.744,18.965c0,0.031,0.013,0.058,0.038,0.076c0.026,0.019,0.057,0.031,0.093,0.04c0.037,0.01,0.074,0.016,0.11,0.018
		c0.036,0.002,0.064,0.003,0.082,0.003c0.266,0,0.51-0.031,0.728-0.091c0.22-0.062,0.406-0.155,0.559-0.284
		c0.153-0.13,0.272-0.296,0.356-0.499c0.084-0.202,0.126-0.447,0.126-0.731c0-0.27-0.04-0.505-0.121-0.703
		c-0.08-0.199-0.194-0.364-0.342-0.495c-0.148-0.132-0.327-0.229-0.537-0.293c-0.21-0.064-0.444-0.098-0.703-0.098
		c-0.066,0-0.134,0.006-0.203,0.018c-0.069,0.011-0.131,0.039-0.186,0.082V18.965z"/>
	<path clip-path="url(#SVGID_2_)" fill="#FFFFFF" d="M17.275,19.359h-2.498v-0.056c0.114,0,0.185-0.015,0.214-0.046
		c0.029-0.03,0.044-0.104,0.044-0.222v-3.061c0-0.117-0.015-0.191-0.044-0.222c-0.029-0.032-0.1-0.047-0.214-0.047v-0.055h2.443
		l0.006,0.562h-0.077c-0.019-0.138-0.061-0.223-0.129-0.253c-0.068-0.032-0.165-0.047-0.293-0.047h-1.106
		c-0.062,0-0.098,0.006-0.107,0.02c-0.009,0.013-0.013,0.048-0.013,0.106v1.254h1.111c0.059,0,0.11-0.003,0.153-0.008
		c0.044-0.006,0.08-0.018,0.107-0.036c0.028-0.018,0.049-0.045,0.063-0.082c0.015-0.037,0.026-0.086,0.033-0.147h0.071v0.826h-0.071
		c-0.007-0.065-0.018-0.116-0.033-0.152c-0.014-0.037-0.035-0.065-0.063-0.085c-0.027-0.021-0.062-0.033-0.104-0.039
		c-0.042-0.005-0.094-0.008-0.156-0.008h-1.111v1.43c0,0.032,0.009,0.057,0.029,0.073s0.044,0.025,0.072,0.029
		c0.027,0.005,0.056,0.006,0.088,0.003c0.03-0.002,0.057-0.003,0.079-0.003h0.903c0.088,0,0.164-0.005,0.228-0.013
		c0.063-0.009,0.121-0.029,0.172-0.058c0.051-0.029,0.097-0.068,0.137-0.117c0.04-0.05,0.079-0.116,0.115-0.2h0.088L17.275,19.359z"
		/>
	<path clip-path="url(#SVGID_2_)" fill="#FFFFFF" d="M21.856,19.324c-0.21,0.066-0.43,0.102-0.66,0.102
		c-0.292,0-0.552-0.047-0.78-0.14c-0.228-0.094-0.423-0.225-0.583-0.393c-0.161-0.168-0.284-0.37-0.368-0.604
		c-0.084-0.236-0.126-0.496-0.126-0.78c0-0.274,0.044-0.529,0.132-0.764c0.088-0.235,0.213-0.441,0.375-0.613
		c0.162-0.174,0.358-0.309,0.586-0.406c0.228-0.096,0.483-0.145,0.764-0.145c0.194,0,0.387,0.021,0.58,0.064
		c0.022,0.009,0.051,0.017,0.085,0.025c0.035,0.009,0.071,0.019,0.107,0.03c0.036,0.012,0.072,0.02,0.104,0.026
		c0.033,0.009,0.06,0.013,0.082,0.013c0.07,0,0.114-0.033,0.132-0.1h0.06v0.203c0,0.073-0.001,0.148-0.003,0.225
		c-0.002,0.076-0.005,0.151-0.01,0.225c-0.006,0.073-0.016,0.136-0.031,0.191c-0.128-0.208-0.27-0.366-0.427-0.474
		s-0.361-0.162-0.613-0.162c-0.245,0-0.457,0.045-0.635,0.135c-0.179,0.09-0.326,0.209-0.441,0.358
		c-0.115,0.15-0.201,0.325-0.258,0.526c-0.056,0.2-0.085,0.412-0.085,0.635c0,0.23,0.03,0.445,0.088,0.646
		c0.058,0.201,0.147,0.375,0.266,0.524c0.118,0.147,0.268,0.264,0.449,0.349c0.18,0.087,0.395,0.13,0.643,0.13
		c0.088,0,0.183-0.003,0.285-0.006c0.102-0.004,0.203-0.013,0.304-0.029c0.1-0.018,0.196-0.042,0.288-0.077
		c0.09-0.034,0.173-0.083,0.246-0.146l0.022,0.094C22.258,19.143,22.066,19.256,21.856,19.324"/>
	<path clip-path="url(#SVGID_2_)" fill="#FFFFFF" d="M25.051,19.359v-0.056c0.059,0,0.105-0.003,0.143-0.007
		c0.037-0.006,0.064-0.018,0.082-0.037c0.018-0.017,0.031-0.044,0.039-0.079c0.008-0.033,0.01-0.083,0.01-0.145v-1.435h-1.791v1.435
		c0,0.062,0.003,0.111,0.009,0.145c0.005,0.035,0.017,0.062,0.035,0.079c0.019,0.02,0.045,0.031,0.08,0.037
		c0.034,0.004,0.081,0.007,0.14,0.007v0.056h-1.003v-0.056c0.059,0,0.106-0.003,0.143-0.007c0.036-0.006,0.064-0.018,0.082-0.037
		c0.019-0.017,0.031-0.044,0.038-0.079c0.008-0.033,0.011-0.083,0.011-0.145v-3.061c0-0.062-0.003-0.11-0.011-0.146
		c-0.007-0.034-0.02-0.061-0.038-0.079c-0.018-0.019-0.046-0.031-0.082-0.037c-0.037-0.004-0.084-0.007-0.143-0.007v-0.055h1.003
		v0.055c-0.059,0-0.105,0.003-0.14,0.007c-0.035,0.006-0.062,0.019-0.08,0.037s-0.03,0.045-0.035,0.082
		c-0.006,0.036-0.009,0.084-0.009,0.143v1.347h1.791v-1.347c0-0.062-0.002-0.11-0.01-0.146c-0.008-0.034-0.021-0.061-0.039-0.079
		s-0.045-0.031-0.082-0.037c-0.037-0.004-0.084-0.007-0.143-0.007v-0.055h1.008v0.055c-0.059,0-0.105,0.003-0.141,0.007
		c-0.033,0.006-0.061,0.019-0.082,0.037c-0.02,0.019-0.031,0.045-0.037,0.082c-0.006,0.036-0.008,0.084-0.008,0.143v3.061
		c0,0.062,0.002,0.111,0.008,0.145c0.006,0.035,0.018,0.062,0.037,0.079c0.021,0.02,0.049,0.031,0.082,0.037
		c0.035,0.004,0.082,0.007,0.141,0.007v0.056H25.051z"/>
	<path clip-path="url(#SVGID_2_)" fill="#FFFFFF" d="M26.743,19.359v-0.056c0.062,0,0.113-0.002,0.152-0.005
		c0.037-0.003,0.068-0.013,0.09-0.029s0.035-0.043,0.043-0.079c0.008-0.037,0.012-0.088,0.012-0.154v-3.061
		c0-0.066-0.004-0.117-0.012-0.153c-0.008-0.037-0.021-0.064-0.043-0.08s-0.053-0.027-0.09-0.029
		c-0.039-0.004-0.09-0.006-0.152-0.006v-0.055h1.062v0.055c-0.061,0-0.111,0.002-0.15,0.006c-0.037,0.002-0.068,0.014-0.09,0.029
		s-0.037,0.043-0.043,0.08c-0.008,0.036-0.012,0.087-0.012,0.153v3.061c0,0.066,0.004,0.117,0.012,0.154
		c0.006,0.036,0.021,0.062,0.043,0.079s0.053,0.026,0.09,0.029c0.039,0.003,0.09,0.005,0.15,0.005v0.056H26.743z"/>
	<path clip-path="url(#SVGID_2_)" fill="#FFFFFF" d="M30.959,19.359h-2.469v-0.056c0.059,0,0.105-0.003,0.139-0.007
		c0.035-0.006,0.062-0.018,0.08-0.037c0.018-0.017,0.029-0.044,0.035-0.079c0.006-0.033,0.008-0.083,0.008-0.145v-3.061
		c0-0.059-0.002-0.106-0.008-0.143c-0.006-0.037-0.018-0.063-0.035-0.082s-0.045-0.031-0.08-0.037
		c-0.033-0.004-0.08-0.007-0.139-0.007v-0.055h1.008v0.055c-0.059,0-0.107,0.003-0.143,0.007c-0.037,0.006-0.064,0.019-0.084,0.037
		c-0.021,0.019-0.035,0.045-0.041,0.079c-0.008,0.035-0.012,0.083-0.012,0.146v3.018c0,0.032,0.01,0.057,0.029,0.073
		s0.045,0.025,0.072,0.029c0.027,0.005,0.057,0.006,0.086,0.003c0.033-0.002,0.059-0.003,0.08-0.003h0.799
		c0.1,0,0.188-0.004,0.264-0.01c0.076-0.008,0.145-0.024,0.203-0.052c0.059-0.028,0.109-0.07,0.156-0.126
		c0.045-0.057,0.09-0.133,0.133-0.229l0.072,0.018L30.959,19.359z"/>
	<path clip-path="url(#SVGID_2_)" fill="#FFFFFF" d="M33.879,19.359h-2.498v-0.056c0.113,0,0.184-0.015,0.215-0.046
		c0.027-0.03,0.043-0.104,0.043-0.222v-3.061c0-0.117-0.016-0.191-0.043-0.222c-0.031-0.032-0.102-0.047-0.215-0.047v-0.055h2.443
		l0.006,0.562h-0.078c-0.018-0.138-0.061-0.223-0.129-0.253c-0.066-0.032-0.164-0.047-0.293-0.047h-1.105
		c-0.062,0-0.098,0.006-0.107,0.02c-0.008,0.013-0.014,0.048-0.014,0.106v1.254h1.113c0.057,0,0.109-0.003,0.152-0.008
		c0.043-0.006,0.08-0.018,0.107-0.036c0.027-0.018,0.047-0.045,0.062-0.082c0.014-0.037,0.025-0.086,0.033-0.147h0.07v0.826h-0.07
		c-0.008-0.065-0.02-0.116-0.033-0.152c-0.016-0.037-0.035-0.065-0.062-0.085c-0.027-0.021-0.062-0.033-0.105-0.039
		c-0.041-0.005-0.094-0.008-0.154-0.008h-1.113v1.43c0,0.032,0.01,0.057,0.031,0.073c0.02,0.017,0.043,0.025,0.07,0.029
		c0.027,0.005,0.057,0.006,0.088,0.003c0.031-0.002,0.059-0.003,0.08-0.003h0.902c0.088,0,0.164-0.005,0.229-0.013
		c0.062-0.009,0.121-0.029,0.172-0.058c0.051-0.029,0.098-0.068,0.137-0.117c0.041-0.05,0.078-0.116,0.115-0.2h0.088L33.879,19.359z
		"/>
	<path clip-path="url(#SVGID_2_)" fill="#ECECEC" d="M7.124,7.481L7.124,7.481c0.042-0.03,0.012-0.14-0.063-0.246L2.429,0.861
		C2.353,0.757,2.257,0.696,2.216,0.727C2.174,0.756,2.203,0.866,2.28,0.97l4.631,6.377C6.987,7.45,7.083,7.512,7.124,7.481"/>
	<path clip-path="url(#SVGID_2_)" fill="#1D1D1B" d="M7.098,7.493c-0.05,0-0.127-0.059-0.189-0.146L2.277,0.972
		c-0.058-0.079-0.09-0.164-0.082-0.214C2.198,0.743,2.203,0.73,2.214,0.723c0.008-0.006,0.018-0.008,0.028-0.008
		c0.05,0,0.127,0.058,0.19,0.145l4.632,6.375c0.058,0.079,0.09,0.164,0.082,0.215c-0.003,0.015-0.009,0.027-0.02,0.034
		C7.118,7.49,7.109,7.493,7.098,7.493 M2.242,0.722c-0.009,0-0.017,0.002-0.023,0.007c-0.009,0.006-0.015,0.016-0.017,0.03
		C2.195,0.807,2.227,0.891,2.283,0.968l4.631,6.376c0.06,0.083,0.137,0.142,0.184,0.142c0.01,0,0.018-0.003,0.024-0.007
		C7.13,7.473,7.137,7.463,7.138,7.448c0.008-0.047-0.024-0.132-0.08-0.21L2.427,0.864C2.366,0.781,2.29,0.722,2.242,0.722"/>
	<path clip-path="url(#SVGID_2_)" fill="#ECECEC" d="M0.447,5.211L0.447,5.211C0.432,5.163,0.521,5.093,0.646,5.055L8.181,2.75
		c0.124-0.038,0.238-0.029,0.253,0.02C8.449,2.819,8.36,2.889,8.235,2.928L0.7,5.231C0.575,5.269,0.462,5.26,0.447,5.211"/>
	<path clip-path="url(#SVGID_2_)" fill="#1D1D1B" d="M0.556,5.259c-0.062,0-0.103-0.017-0.111-0.046
		c-0.016-0.051,0.072-0.123,0.2-0.162l7.536-2.304c0.051-0.015,0.101-0.024,0.144-0.024c0.063,0,0.104,0.017,0.113,0.046
		C8.453,2.821,8.365,2.892,8.237,2.93L0.701,5.234C0.65,5.25,0.599,5.259,0.556,5.259 M8.325,2.73c-0.043,0-0.092,0.008-0.142,0.023
		L0.646,5.057C0.525,5.094,0.438,5.164,0.451,5.21c0.008,0.026,0.047,0.041,0.105,0.041c0.043,0,0.093-0.008,0.143-0.023
		l7.536-2.304c0.123-0.038,0.21-0.106,0.195-0.153C8.422,2.746,8.384,2.73,8.325,2.73"/>
	<path clip-path="url(#SVGID_2_)" fill="#ECECEC" d="M2.036,7.481L2.036,7.481c-0.042-0.03-0.013-0.14,0.063-0.246L6.73,0.861
		c0.076-0.104,0.173-0.165,0.213-0.134C6.986,0.756,6.957,0.866,6.88,0.97L2.249,7.347C2.171,7.45,2.078,7.512,2.036,7.481"/>
	<path clip-path="url(#SVGID_2_)" fill="#1D1D1B" d="M2.062,7.493c-0.012,0-0.021-0.003-0.028-0.009
		C2.022,7.477,2.018,7.465,2.015,7.45C2.006,7.399,2.039,7.315,2.097,7.235L6.729,0.86c0.063-0.087,0.139-0.145,0.189-0.145
		c0.012,0,0.022,0.002,0.03,0.008c0.009,0.007,0.016,0.02,0.018,0.035c0.009,0.05-0.024,0.135-0.082,0.214L2.25,7.347
		C2.188,7.434,2.111,7.493,2.062,7.493 M6.917,0.722c-0.047,0-0.122,0.059-0.183,0.142L2.103,7.238
		C2.045,7.316,2.014,7.401,2.021,7.449c0.003,0.014,0.008,0.024,0.017,0.03c0.006,0.004,0.013,0.007,0.024,0.007
		c0.046,0,0.123-0.059,0.184-0.142l4.631-6.376c0.057-0.077,0.089-0.161,0.081-0.209c-0.002-0.014-0.008-0.024-0.016-0.03
		C6.936,0.724,6.928,0.722,6.917,0.722"/>
	<path clip-path="url(#SVGID_2_)" fill="#ECECEC" d="M4.593,0.003L4.593,0.003c0.051,0,0.092,0.105,0.092,0.236v7.306
		c0,0.131-0.041,0.236-0.092,0.236c-0.051,0-0.092-0.105-0.092-0.236V0.239C4.501,0.108,4.542,0.003,4.593,0.003"/>
	<path clip-path="url(#SVGID_2_)" fill="#1D1D1B" d="M4.593,7.784c-0.053,0-0.097-0.104-0.097-0.239V0.239
		C4.496,0.105,4.541,0,4.593,0c0.054,0,0.096,0.105,0.096,0.239v7.306C4.689,7.68,4.647,7.784,4.593,7.784 M4.593,0.008
		c-0.048,0-0.089,0.103-0.089,0.231v7.306c0,0.129,0.041,0.232,0.089,0.232c0.049,0,0.088-0.103,0.088-0.232V0.239
		C4.681,0.111,4.642,0.008,4.593,0.008"/>
	<path clip-path="url(#SVGID_2_)" fill="#ECECEC" d="M8.7,5.228L8.7,5.228C8.715,5.18,8.626,5.109,8.502,5.072L0.966,2.768
		c-0.124-0.039-0.237-0.029-0.252,0.02C0.7,2.836,0.788,2.907,0.913,2.944l7.535,2.304C8.573,5.287,8.685,5.278,8.7,5.228"/>
	<path clip-path="url(#SVGID_2_)" fill="#1D1D1B" d="M8.592,5.275L8.592,5.275c-0.044,0-0.093-0.009-0.144-0.023L0.912,2.947
		C0.818,2.918,0.741,2.871,0.717,2.826c-0.007-0.014-0.01-0.029-0.006-0.04C0.72,2.757,0.761,2.74,0.823,2.74
		c0.044,0,0.094,0.008,0.145,0.024l7.535,2.304c0.095,0.029,0.171,0.077,0.195,0.121c0.007,0.015,0.009,0.028,0.005,0.04
		C8.695,5.259,8.654,5.275,8.592,5.275 M0.823,2.747c-0.057,0-0.097,0.016-0.105,0.041C0.715,2.799,0.717,2.809,0.723,2.822
		c0.023,0.043,0.1,0.091,0.191,0.119L8.45,5.245C8.5,5.26,8.55,5.268,8.592,5.268c0.058,0,0.097-0.015,0.106-0.04
		c0.001-0.011,0-0.023-0.006-0.034C8.669,5.15,8.592,5.102,8.5,5.074L0.966,2.77C0.916,2.755,0.866,2.747,0.823,2.747"/>
	<path clip-path="url(#SVGID_2_)" fill="#ECECEC" d="M2.129,3.92c0-0.047,0.106-0.085,0.236-0.085h4.417
		c0.131,0,0.236,0.038,0.236,0.085c0,0.046-0.105,0.083-0.236,0.083H2.365C2.235,4.003,2.129,3.966,2.129,3.92"/>
	<path clip-path="url(#SVGID_2_)" fill="#1D1D1B" d="M6.782,4.008H2.365c-0.135,0-0.24-0.038-0.24-0.087
		c0-0.05,0.105-0.089,0.24-0.089h4.417c0.134,0,0.239,0.039,0.239,0.089C7.021,3.97,6.916,4.008,6.782,4.008 M2.365,3.839
		c-0.126,0-0.232,0.037-0.232,0.082C2.133,3.964,2.239,4,2.365,4h4.417C6.91,4,7.014,3.964,7.014,3.92
		c0-0.045-0.106-0.082-0.232-0.082H2.365z"/>
	<path clip-path="url(#SVGID_2_)" fill="#ECECEC" d="M2.572,2.566C2.599,2.531,2.706,2.56,2.813,2.633l3.619,2.535
		c0.107,0.074,0.172,0.166,0.145,0.204C6.55,5.409,6.442,5.379,6.336,5.306l-3.62-2.535C2.61,2.697,2.545,2.605,2.572,2.566"/>
	<path clip-path="url(#SVGID_2_)" fill="#1D1D1B" d="M6.533,5.391c-0.049,0-0.126-0.031-0.199-0.084L2.715,2.774
		c-0.11-0.076-0.174-0.169-0.146-0.208c0.008-0.012,0.024-0.018,0.046-0.018c0.05,0,0.127,0.031,0.2,0.083l3.619,2.533
		c0.052,0.037,0.095,0.078,0.123,0.117c0.029,0.04,0.036,0.073,0.023,0.092C6.571,5.385,6.555,5.391,6.533,5.391 M2.615,2.555
		c-0.02,0-0.033,0.005-0.041,0.014C2.55,2.607,2.614,2.695,2.718,2.768l3.62,2.534c0.072,0.05,0.148,0.083,0.195,0.083
		c0.02,0,0.034-0.007,0.04-0.016c0.013-0.017,0.004-0.048-0.022-0.084C6.525,5.246,6.48,5.205,6.43,5.17L2.812,2.637
		C2.739,2.586,2.664,2.555,2.615,2.555"/>
	<path clip-path="url(#SVGID_2_)" fill="#ECECEC" d="M3.847,1.633c0.045-0.013,0.111,0.076,0.15,0.2l1.291,4.224
		c0.038,0.124,0.033,0.237-0.012,0.25c-0.043,0.013-0.11-0.076-0.148-0.2L3.834,1.883C3.798,1.758,3.803,1.646,3.847,1.633"/>
	<path clip-path="url(#SVGID_2_)" fill="#1D1D1B" d="M5.269,6.313c-0.047,0-0.109-0.089-0.144-0.205L3.833,1.885
		c-0.04-0.129-0.033-0.24,0.013-0.254C3.893,1.615,3.96,1.707,4,1.833l1.293,4.223c0.038,0.129,0.032,0.241-0.015,0.255
		C5.274,6.312,5.271,6.313,5.269,6.313 M3.856,1.636c-0.004,0-0.006,0-0.009,0.001C3.805,1.65,3.802,1.761,3.839,1.882l1.292,4.224
		c0.034,0.112,0.094,0.2,0.137,0.2c0.002,0,0.005-0.001,0.007-0.002c0.042-0.013,0.045-0.125,0.01-0.245L3.993,1.835
		C3.959,1.723,3.898,1.636,3.856,1.636"/>
	<path clip-path="url(#SVGID_2_)" fill="#ECECEC" d="M5.286,1.633c-0.044-0.013-0.11,0.076-0.149,0.2L3.845,6.058
		c-0.038,0.124-0.032,0.237,0.012,0.25c0.045,0.013,0.112-0.076,0.149-0.2l1.292-4.224C5.336,1.758,5.33,1.646,5.286,1.633"/>
	<path clip-path="url(#SVGID_2_)" fill="#1D1D1B" d="M3.866,6.313c-0.004,0-0.006-0.001-0.009-0.002
		c-0.024-0.007-0.038-0.038-0.04-0.087C3.815,6.177,3.824,6.118,3.843,6.056l1.291-4.223c0.039-0.126,0.107-0.216,0.154-0.202
		C5.334,1.645,5.34,1.756,5.301,1.885L4.01,6.108C3.975,6.224,3.913,6.313,3.866,6.313 M5.278,1.636
		c-0.043,0-0.103,0.087-0.138,0.199L3.849,6.059c-0.018,0.06-0.027,0.118-0.025,0.165c0.002,0.045,0.015,0.074,0.035,0.08
		c0.002,0.001,0.004,0.002,0.007,0.002c0.043,0,0.103-0.088,0.137-0.2l1.292-4.224C5.332,1.761,5.328,1.65,5.286,1.637
		C5.283,1.636,5.28,1.636,5.278,1.636"/>
	<path clip-path="url(#SVGID_2_)" fill="#ECECEC" d="M6.609,2.566C6.583,2.531,6.476,2.56,6.368,2.633L2.75,5.167
		C2.644,5.242,2.579,5.333,2.605,5.372c0.026,0.037,0.134,0.008,0.241-0.066l3.619-2.535C6.571,2.697,6.635,2.605,6.609,2.566"/>
	<path clip-path="url(#SVGID_2_)" fill="#1D1D1B" d="M2.648,5.391L2.648,5.391c-0.023,0-0.038-0.006-0.046-0.018
		c-0.029-0.04,0.035-0.132,0.145-0.209l3.619-2.533c0.073-0.052,0.149-0.083,0.201-0.083c0.021,0,0.037,0.006,0.045,0.018
		c0.028,0.039-0.035,0.132-0.145,0.208L2.849,5.307C2.775,5.36,2.697,5.391,2.648,5.391 M6.567,2.555
		c-0.049,0-0.125,0.031-0.197,0.082L2.751,5.17C2.649,5.242,2.583,5.333,2.608,5.369c0.007,0.009,0.021,0.016,0.04,0.016
		c0.048,0,0.124-0.033,0.195-0.083l3.62-2.534c0.104-0.073,0.169-0.161,0.144-0.199C6.6,2.56,6.586,2.555,6.567,2.555"/>
</g>
<g>
	<defs>
		<polygon id="SVGID_3_" points="4.149,3.311 2.69,3.314 3.87,4.172 3.421,5.559 4.601,4.704 5.783,5.559 5.333,4.172 6.512,3.314 
			5.053,3.311 4.601,1.925 		"/>
	</defs>
	<clipPath id="SVGID_4_">
		<use xlink:href="#SVGID_3_"  overflow="visible"/>
	</clipPath>
	<path clip-path="url(#SVGID_4_)" fill="#E5E3E1" d="M6.806,3.741c0-1.218-0.987-2.205-2.205-2.205
		c-1.216,0-2.204,0.987-2.204,2.205c0,1.216,0.988,2.205,2.204,2.205C5.819,5.946,6.806,4.958,6.806,3.741 M6.732,3.742L6.732,3.742
		c0,1.176-0.955,2.129-2.131,2.129c-1.175,0-2.13-0.953-2.13-2.129c0-1.176,0.955-2.13,2.13-2.13
		C5.777,1.612,6.732,2.566,6.732,3.742"/>
	<path clip-path="url(#SVGID_4_)" fill="#E6E4E2" d="M6.732,3.745c0-1.176-0.955-2.13-2.131-2.13c-1.175,0-2.13,0.954-2.13,2.13
		c0,1.176,0.955,2.13,2.13,2.13C5.777,5.875,6.732,4.92,6.732,3.745 M6.656,3.742L6.656,3.742c0,1.135-0.92,2.056-2.055,2.056
		c-1.135,0-2.055-0.921-2.055-2.056c0-1.135,0.92-2.055,2.055-2.055C5.736,1.688,6.656,2.607,6.656,3.742"/>
	<path clip-path="url(#SVGID_4_)" fill="#E7E5E3" d="M6.657,3.745c0-1.134-0.921-2.056-2.055-2.056
		c-1.135,0-2.055,0.922-2.055,2.056c0,1.135,0.92,2.056,2.055,2.056C5.735,5.8,6.657,4.879,6.657,3.745 M6.583,3.742L6.583,3.742
		c0,1.093-0.887,1.98-1.981,1.98c-1.093,0-1.981-0.887-1.981-1.98c0-1.093,0.888-1.98,1.981-1.98
		C5.695,1.762,6.583,2.649,6.583,3.742"/>
	<path clip-path="url(#SVGID_4_)" fill="#E7E6E4" d="M6.583,3.745c0-1.094-0.887-1.98-1.981-1.98c-1.093,0-1.981,0.886-1.981,1.98
		c0,1.093,0.888,1.98,1.981,1.98C5.695,5.725,6.583,4.837,6.583,3.745 M6.507,3.742L6.507,3.742c0,1.052-0.853,1.906-1.906,1.906
		c-1.052,0-1.905-0.854-1.905-1.906c0-1.052,0.853-1.905,1.905-1.905C5.654,1.837,6.507,2.69,6.507,3.742"/>
	<path clip-path="url(#SVGID_4_)" fill="#E8E7E5" d="M6.508,3.741c0-1.052-0.853-1.907-1.907-1.907
		c-1.051,0-1.904,0.855-1.904,1.907c0,1.052,0.853,1.905,1.904,1.905C5.655,5.646,6.508,4.793,6.508,3.741 M6.433,3.742L6.433,3.742
		c0,1.011-0.82,1.831-1.832,1.831c-1.009,0-1.83-0.82-1.83-1.831c0-1.01,0.821-1.831,1.83-1.831
		C5.613,1.912,6.433,2.732,6.433,3.742"/>
	<path clip-path="url(#SVGID_4_)" fill="#EAE8E6" d="M6.433,3.741c0-1.011-0.82-1.832-1.831-1.832c-1.01,0-1.831,0.821-1.831,1.832
		c0,1.011,0.821,1.831,1.831,1.831C5.612,5.572,6.433,4.752,6.433,3.741 M6.357,3.742L6.357,3.742c0,0.969-0.786,1.756-1.756,1.756
		c-0.97,0-1.756-0.787-1.756-1.756c0-0.969,0.786-1.756,1.756-1.756C5.571,1.986,6.357,2.773,6.357,3.742"/>
	<path clip-path="url(#SVGID_4_)" fill="#EBE9E7" d="M6.357,3.741c0-0.971-0.785-1.757-1.756-1.757
		c-0.969,0-1.756,0.786-1.756,1.757c0,0.969,0.787,1.755,1.756,1.755C5.572,5.497,6.357,4.71,6.357,3.741 M6.283,3.742L6.283,3.742
		c0,0.929-0.753,1.682-1.682,1.682c-0.928,0-1.681-0.753-1.681-1.682c0-0.928,0.753-1.681,1.681-1.681
		C5.53,2.062,6.283,2.814,6.283,3.742"/>
	<path clip-path="url(#SVGID_4_)" fill="#ECEAE8" d="M6.283,3.741c0-0.929-0.753-1.681-1.682-1.681
		c-0.928,0-1.681,0.752-1.681,1.681c0,0.927,0.753,1.682,1.681,1.682C5.53,5.423,6.283,4.668,6.283,3.741 M6.208,3.742L6.208,3.742
		c0,0.887-0.719,1.606-1.607,1.606c-0.887,0-1.606-0.719-1.606-1.606c0-0.888,0.719-1.606,1.606-1.606
		C5.489,2.136,6.208,2.854,6.208,3.742"/>
	<path clip-path="url(#SVGID_4_)" fill="#EDEBE9" d="M6.208,3.741c0-0.888-0.72-1.607-1.607-1.607c-0.887,0-1.607,0.719-1.607,1.607
		c0,0.886,0.72,1.606,1.607,1.606C5.488,5.348,6.208,4.627,6.208,3.741 M6.133,3.742L6.133,3.742c0,0.845-0.687,1.532-1.532,1.532
		c-0.846,0-1.532-0.687-1.532-1.532c0-0.846,0.686-1.532,1.532-1.532C5.446,2.21,6.133,2.896,6.133,3.742"/>
	<path clip-path="url(#SVGID_4_)" fill="#EDECEB" d="M6.134,3.745c0-0.845-0.687-1.531-1.533-1.531
		c-0.845,0-1.531,0.686-1.531,1.531c0,0.846,0.686,1.532,1.531,1.532C5.447,5.276,6.134,4.59,6.134,3.745 M6.059,3.742L6.059,3.742
		c0,0.804-0.652,1.458-1.458,1.458c-0.804,0-1.457-0.654-1.457-1.458c0-0.805,0.653-1.458,1.457-1.458
		C5.407,2.285,6.059,2.938,6.059,3.742"/>
	<path clip-path="url(#SVGID_4_)" fill="#EEEDEC" d="M6.059,3.745c0-0.804-0.652-1.457-1.457-1.457
		c-0.805,0-1.458,0.653-1.458,1.457c0,0.804,0.653,1.457,1.458,1.457C5.406,5.202,6.059,4.548,6.059,3.745 M5.984,3.742L5.984,3.742
		c0,0.763-0.619,1.383-1.383,1.383c-0.763,0-1.383-0.62-1.383-1.383c0-0.763,0.62-1.383,1.383-1.383
		C5.365,2.359,5.984,2.979,5.984,3.742"/>
	<path clip-path="url(#SVGID_4_)" fill="#EFEDEC" d="M5.984,3.745c0-0.764-0.619-1.383-1.383-1.383
		c-0.763,0-1.382,0.619-1.382,1.383c0,0.764,0.619,1.382,1.382,1.382C5.365,5.126,5.984,4.508,5.984,3.745 M5.909,3.742L5.909,3.742
		c0,0.722-0.586,1.308-1.308,1.308c-0.722,0-1.308-0.586-1.308-1.308c0-0.722,0.586-1.308,1.308-1.308
		C5.323,2.435,5.909,3.021,5.909,3.742"/>
	<path clip-path="url(#SVGID_4_)" fill="#F0EEEE" d="M5.909,3.741c0-0.722-0.586-1.308-1.308-1.308S3.293,3.02,3.293,3.741
		c0,0.721,0.586,1.308,1.308,1.308S5.909,4.462,5.909,3.741 M5.835,3.742L5.835,3.742c0,0.682-0.554,1.233-1.234,1.233
		c-0.68,0-1.233-0.551-1.233-1.233c0-0.681,0.553-1.233,1.233-1.233C5.281,2.509,5.835,3.062,5.835,3.742"/>
	<path clip-path="url(#SVGID_4_)" fill="#F1EFEF" d="M5.835,3.741c0-0.682-0.554-1.234-1.234-1.234c-0.68,0-1.233,0.552-1.233,1.234
		c0,0.681,0.553,1.232,1.233,1.232C5.281,4.974,5.835,4.422,5.835,3.741 M5.76,3.742L5.76,3.742c0,0.64-0.52,1.158-1.159,1.158
		c-0.639,0-1.158-0.518-1.158-1.158c0-0.641,0.519-1.158,1.158-1.158C5.24,2.584,5.76,3.102,5.76,3.742"/>
	<path clip-path="url(#SVGID_4_)" fill="#F2F0F0" d="M5.761,3.741c0-0.641-0.52-1.159-1.159-1.159c-0.64,0-1.158,0.518-1.158,1.159
		c0,0.639,0.518,1.158,1.158,1.158C5.241,4.899,5.761,4.38,5.761,3.741 M5.685,3.742L5.685,3.742c0,0.599-0.485,1.083-1.083,1.083
		c-0.599,0-1.084-0.484-1.084-1.083c0-0.599,0.485-1.084,1.084-1.084C5.2,2.658,5.685,3.144,5.685,3.742"/>
	<path clip-path="url(#SVGID_4_)" fill="#F3F1F1" d="M5.685,3.741c0-0.599-0.485-1.084-1.084-1.084
		c-0.598,0-1.083,0.485-1.083,1.084c0,0.599,0.485,1.083,1.083,1.083C5.2,4.824,5.685,4.34,5.685,3.741 M5.611,3.742L5.611,3.742
		c0,0.557-0.453,1.009-1.01,1.009c-0.556,0-1.009-0.452-1.009-1.009c0-0.557,0.453-1.009,1.009-1.009
		C5.158,2.733,5.611,3.186,5.611,3.742"/>
	<path clip-path="url(#SVGID_4_)" fill="#F3F3F2" d="M5.611,3.741c0-0.557-0.452-1.009-1.01-1.009c-0.556,0-1.008,0.452-1.008,1.009
		c0,0.557,0.452,1.009,1.008,1.009C5.159,4.75,5.611,4.298,5.611,3.741 M5.536,3.742L5.536,3.742c0,0.516-0.418,0.934-0.935,0.934
		c-0.515,0-0.934-0.418-0.934-0.934c0-0.516,0.419-0.935,0.934-0.935C5.118,2.808,5.536,3.227,5.536,3.742"/>
	<path clip-path="url(#SVGID_4_)" fill="#F4F3F3" d="M5.535,3.745c0-0.516-0.418-0.935-0.934-0.935
		c-0.516,0-0.935,0.419-0.935,0.935c0,0.515,0.419,0.934,0.935,0.934C5.117,4.678,5.535,4.259,5.535,3.745 M5.461,3.742L5.461,3.742
		c0,0.475-0.385,0.859-0.86,0.859c-0.474,0-0.859-0.384-0.859-0.859c0-0.475,0.385-0.859,0.859-0.859
		C5.076,2.883,5.461,3.268,5.461,3.742"/>
	<path clip-path="url(#SVGID_4_)" fill="#F5F4F4" d="M5.462,3.745c0-0.476-0.386-0.859-0.861-0.859
		c-0.473,0-0.859,0.383-0.859,0.859c0,0.474,0.386,0.859,0.859,0.859C5.076,4.604,5.462,4.218,5.462,3.745 M5.387,3.742L5.387,3.742
		c0,0.433-0.353,0.785-0.786,0.785c-0.432,0-0.784-0.352-0.784-0.785c0-0.434,0.352-0.785,0.784-0.785
		C5.034,2.958,5.387,3.309,5.387,3.742"/>
	<path clip-path="url(#SVGID_4_)" fill="#F6F5F5" d="M5.387,3.745c0-0.434-0.352-0.784-0.785-0.784s-0.785,0.35-0.785,0.784
		c0,0.433,0.352,0.785,0.785,0.785S5.387,4.177,5.387,3.745 M5.312,3.742L5.312,3.742c0,0.393-0.318,0.71-0.71,0.71
		s-0.71-0.317-0.71-0.71c0-0.392,0.318-0.71,0.71-0.71S5.312,3.351,5.312,3.742"/>
	<path clip-path="url(#SVGID_4_)" fill="#F7F6F6" d="M5.312,3.741c0-0.392-0.318-0.71-0.711-0.71c-0.391,0-0.709,0.318-0.709,0.71
		c0,0.392,0.318,0.709,0.709,0.709C4.994,4.45,5.312,4.133,5.312,3.741 M5.238,3.742L5.238,3.742c0,0.351-0.286,0.635-0.637,0.635
		c-0.35,0-0.635-0.284-0.635-0.635c0-0.35,0.285-0.634,0.635-0.634C4.952,3.108,5.238,3.393,5.238,3.742"/>
	<path clip-path="url(#SVGID_4_)" fill="#F8F7F7" d="M5.238,3.741c0-0.351-0.285-0.635-0.637-0.635c-0.35,0-0.635,0.284-0.635,0.635
		c0,0.35,0.285,0.636,0.635,0.636C4.953,4.377,5.238,4.091,5.238,3.741 M5.162,3.742L5.162,3.742c0,0.31-0.251,0.561-0.561,0.561
		c-0.309,0-0.56-0.251-0.56-0.561c0-0.309,0.251-0.56,0.56-0.56C4.911,3.183,5.162,3.434,5.162,3.742"/>
	<path clip-path="url(#SVGID_4_)" fill="#F9F8F8" d="M5.162,3.741c0-0.31-0.251-0.561-0.561-0.561c-0.309,0-0.56,0.251-0.56,0.561
		c0,0.31,0.251,0.56,0.56,0.56C4.911,4.301,5.162,4.051,5.162,3.741 M5.087,3.742L5.087,3.742c0,0.268-0.217,0.486-0.486,0.486
		c-0.267,0-0.486-0.218-0.486-0.486c0-0.268,0.219-0.486,0.486-0.486C4.87,3.256,5.087,3.475,5.087,3.742"/>
	<path clip-path="url(#SVGID_4_)" fill="#F9F9F9" d="M5.087,3.741c0-0.269-0.217-0.487-0.486-0.487
		c-0.267,0-0.485,0.218-0.485,0.487c0,0.268,0.218,0.484,0.485,0.484C4.87,4.226,5.087,4.009,5.087,3.741 M5.013,3.742L5.013,3.742
		c0,0.227-0.185,0.412-0.412,0.412c-0.226,0-0.41-0.185-0.41-0.412c0-0.227,0.184-0.411,0.41-0.411
		C4.828,3.332,5.013,3.516,5.013,3.742"/>
	<path clip-path="url(#SVGID_4_)" fill="#FAFAFA" d="M5.013,3.745c0-0.228-0.184-0.411-0.411-0.411S4.19,3.517,4.19,3.745
		c0,0.226,0.184,0.412,0.411,0.412S5.013,3.97,5.013,3.745 M4.938,3.742L4.938,3.742c0,0.185-0.15,0.336-0.336,0.336
		c-0.185,0-0.336-0.151-0.336-0.336c0-0.186,0.151-0.336,0.336-0.336C4.788,3.406,4.938,3.557,4.938,3.742"/>
	<path clip-path="url(#SVGID_4_)" fill="#FBFBFB" d="M4.938,3.745c0-0.186-0.151-0.336-0.337-0.336c-0.185,0-0.336,0.15-0.336,0.336
		s0.151,0.336,0.336,0.336C4.787,4.081,4.938,3.931,4.938,3.745 M4.864,3.742L4.864,3.742c0,0.144-0.118,0.261-0.263,0.261
		c-0.144,0-0.261-0.117-0.261-0.261c0-0.145,0.117-0.261,0.261-0.261C4.746,3.481,4.864,3.598,4.864,3.742"/>
	<path clip-path="url(#SVGID_4_)" fill="#FCFCFC" d="M4.864,3.745c0-0.145-0.118-0.262-0.262-0.262C4.457,3.482,4.34,3.6,4.34,3.745
		s0.117,0.262,0.262,0.262C4.746,4.006,4.864,3.89,4.864,3.745 M4.789,3.742L4.789,3.742c0,0.103-0.083,0.187-0.187,0.187
		S4.414,3.845,4.414,3.742c0-0.103,0.084-0.187,0.188-0.187S4.789,3.64,4.789,3.742"/>
	<path clip-path="url(#SVGID_4_)" fill="#FDFDFD" d="M4.789,3.745c0-0.103-0.083-0.186-0.187-0.186
		c-0.103,0-0.187,0.083-0.187,0.186s0.084,0.186,0.187,0.186C4.706,3.931,4.789,3.848,4.789,3.745 M4.713,3.742L4.713,3.742
		c0,0.062-0.05,0.112-0.112,0.112c-0.061,0-0.112-0.05-0.112-0.112c0-0.062,0.051-0.111,0.112-0.111
		C4.664,3.631,4.713,3.681,4.713,3.742"/>
	<path clip-path="url(#SVGID_4_)" fill="#FDFFFF" d="M4.713,3.741c0-0.063-0.05-0.113-0.112-0.113c-0.061,0-0.111,0.05-0.111,0.113
		c0,0.061,0.05,0.111,0.111,0.111C4.663,3.853,4.713,3.802,4.713,3.741 M4.638,3.742L4.638,3.742c0,0.021-0.016,0.037-0.037,0.037
		S4.564,3.764,4.564,3.742c0-0.021,0.016-0.037,0.037-0.037S4.638,3.721,4.638,3.742"/>
	<path clip-path="url(#SVGID_4_)" fill="#FFFFFF" d="M4.638,3.741c0-0.021-0.016-0.037-0.037-0.037S4.564,3.72,4.564,3.741
		c0,0.02,0.016,0.037,0.037,0.037S4.638,3.761,4.638,3.741"/>
</g>
<g>
	<defs>
		<rect id="SVGID_5_" width="47.125" height="19.761"/>
	</defs>
	<clipPath id="SVGID_6_">
		<use xlink:href="#SVGID_5_"  overflow="visible"/>
	</clipPath>
	<path clip-path="url(#SVGID_6_)" fill="#1D1D1B" d="M5.789,5.569L5.78,5.562L4.607,4.711H4.603V4.709L4.601,4.708L3.412,5.569
		l0.005-0.011l0.449-1.384L2.679,3.311H2.69l1.456-0.002l0.455-1.396l0.004,0.011l0.451,1.385l1.391,0.002L6.449,3.31v0.001h0.075
		L6.515,3.316L5.338,4.174L5.789,5.569z M3.87,4.183L3.427,5.55l0.024-0.018L3.448,5.53l1.141-1.589H4.588L3.87,4.183z M5.767,5.544
		L5.776,5.55L5.33,4.17l0.002-0.001l1.17-0.852L6.449,3.316L4.607,3.936l0.006,0.007l0.718,0.235L5.328,4.183l-0.709-0.23
		l1.151,1.59L5.767,5.544z M4.61,4.706l1.146,0.831L4.608,3.947H4.607L4.61,4.706z M4.595,3.944L3.46,5.527l1.141-0.829l0.002,0.003
		L4.6,3.946L4.595,3.944z M2.702,3.317L3.873,4.17L3.872,4.175l0.704-0.236L2.77,3.35l0.002-0.007l1.816,0.592l0.008-0.003
		L4.149,3.314L2.702,3.317z M5.05,3.312L4.607,3.927l1.819-0.611L5.051,3.314L5.05,3.312z M4.154,3.308L4.6,3.925L4.592,1.972h0.007
		l0.008,1.944l0.44-0.612l0.001,0.002l-0.447-1.37L4.154,3.308z"/>
	<path clip-path="url(#SVGID_6_)" fill="#1D1D1B" d="M9.143,7.582v11.262c0,0.297-0.188,0.568-0.575,0.568h-3.59
		c-0.422,0-0.387,0.244-0.387,0.244c0-0.176-0.128-0.244-0.414-0.244H0.539C0.197,19.412,0,19.125,0,18.843V7.582H9.143z"/>
	<polygon clip-path="url(#SVGID_6_)" fill="#007957" points="4.556,7.656 4.556,13.446 0.074,13.446 0.074,7.642 	"/>
	<rect x="4.628" y="7.656" clip-path="url(#SVGID_6_)" fill="#F2D454" width="4.441" height="5.79"/>
	<path clip-path="url(#SVGID_6_)" fill="#C5452E" d="M0.578,19.337c-0.278,0-0.504-0.217-0.504-0.494v-5.324h4.482v5.892
		c0,0-0.032-0.054-0.21-0.073H0.578z"/>
	<path clip-path="url(#SVGID_6_)" fill="#004E93" d="M8.568,19.337c0.278,0,0.501-0.217,0.501-0.494v-5.324h-4.44v5.892
		c0,0,0.023-0.054,0.201-0.073H8.568z"/>
	<polygon clip-path="url(#SVGID_6_)" fill="#FFFFFF" points="2.261,8.206 2.111,12.154 2.479,12.154 	"/>
	<path clip-path="url(#SVGID_6_)" fill="#1D1D1B" d="M2.498,12.17H2.092v-0.018l0.153-3.948h0.032L2.498,12.17z M2.127,12.136h0.334
		L2.264,8.565L2.127,12.136z"/>
	<rect x="1.656" y="11.363" clip-path="url(#SVGID_6_)" fill="#FFFFFF" width="1.227" height="0.186"/>
	<path clip-path="url(#SVGID_6_)" fill="#1D1D1B" d="M2.9,11.566H1.639v-0.22H2.9V11.566z M1.674,11.531h1.193v-0.15H1.674V11.531z"
		/>
	<path clip-path="url(#SVGID_6_)" fill="#FFFFFF" d="M1.891,12.169c0,0-0.032,0.403,0.42,0.403c0,0,0.386-0.018,0.386-0.42
		L1.891,12.169z"/>
	<path clip-path="url(#SVGID_6_)" fill="#1D1D1B" d="M2.311,12.589L2.311,12.589c-0.147,0-0.26-0.042-0.336-0.125
		c-0.113-0.122-0.101-0.29-0.101-0.297l0.001-0.014l0.016-0.001l0.824-0.019v0.02C2.715,12.567,2.317,12.589,2.311,12.589
		L2.311,12.589z M1.908,12.187c0,0.042,0.007,0.165,0.092,0.257c0.069,0.074,0.174,0.112,0.311,0.112
		c0.019-0.001,0.36-0.022,0.369-0.387L1.908,12.187z"/>
	<path clip-path="url(#SVGID_6_)" fill="#1D1D1B" d="M2.121,12.116L2.099,12.09l0.345-0.295l0.022,0.025L2.121,12.116z
		 M2.138,11.847l-0.021-0.026l0.319-0.276l0.021,0.024L2.138,11.847z"/>
	<path clip-path="url(#SVGID_6_)" fill-rule="evenodd" clip-rule="evenodd" fill="#FFFFFF" d="M3.454,8.777l-0.47,1.143h0.958
		L3.454,8.777z M1.103,8.826l-0.488,1.11h0.958L1.103,8.826z M1.119,8.541L0.464,9.919c0,0,0.033,0.621,0.621,0.621
		c0,0,0.605-0.033,0.605-0.604L1.168,8.709h2.185L2.867,9.936c0,0-0.017,0.604,0.621,0.604c0,0,0.588-0.084,0.588-0.604L3.421,8.541
		H1.119z"/>
	<path clip-path="url(#SVGID_6_)" fill="#1D1D1B" d="M3.488,10.558L3.488,10.558c-0.198,0-0.356-0.06-0.467-0.174
		c-0.178-0.181-0.172-0.438-0.172-0.449l0.002-0.006l0.478-1.203H1.195l0.511,1.209c0,0.305-0.168,0.457-0.31,0.531
		c-0.153,0.082-0.304,0.09-0.31,0.09c-0.313,0.002-0.47-0.173-0.546-0.317C0.457,10.081,0.447,9.927,0.447,9.92L0.446,9.916
		l0.003-0.003l0.659-1.388h2.323l0.004,0.009l0.657,1.401c0,0.529-0.596,0.621-0.602,0.621L3.488,10.558z M0.481,9.921
		c0.004,0.059,0.057,0.604,0.604,0.604c0.023-0.002,0.585-0.041,0.588-0.586L1.145,8.693h2.234L2.883,9.939
		c0,0.029,0.004,0.263,0.162,0.425c0.104,0.106,0.253,0.159,0.44,0.161c0.015-0.004,0.152-0.027,0.288-0.105
		c0.189-0.111,0.284-0.271,0.286-0.48L3.41,8.558H1.129L0.481,9.921z M1.597,9.953H0.59l0.512-1.168L1.597,9.953z M0.64,9.919h0.907
		L1.103,8.87L0.64,9.919z M3.966,9.935H2.959l0.495-1.201L3.966,9.935z M3.008,9.902h0.908L3.454,8.82L3.008,9.902z"/>
	<polygon clip-path="url(#SVGID_6_)" fill="#F6CD48" points="8.255,17.118 8.582,17.305 7.782,18.245 7.782,18.79 5.079,18.048 
		5.118,17.664 5.428,17.339 	"/>
	<path clip-path="url(#SVGID_6_)" fill="#1D1D1B" d="M7.8,18.81l-2.74-0.751l0.043-0.403l0.317-0.333h0.008l2.832-0.224l0.004,0.003
		l0.344,0.199l-0.014,0.015L7.8,18.251V18.81z M5.097,18.037l2.669,0.73v-0.529l0.004-0.006l0.785-0.922L8.25,17.135l-2.815,0.219
		l-0.3,0.317L5.097,18.037z"/>
	<polygon clip-path="url(#SVGID_6_)" fill="#FFFFFF" points="8.403,17.266 8.248,17.218 8.256,16.932 7.597,17.739 7.613,18.177 	
		"/>
	<path clip-path="url(#SVGID_6_)" fill="#1D1D1B" d="M7.597,18.221l-0.018-0.489l0.005-0.005l0.69-0.843l-0.01,0.32l0.168,0.054
		L7.597,18.221z M7.613,17.745l0.015,0.389l0.746-0.861L8.23,17.229l0.007-0.249L7.613,17.745z"/>
	<polygon clip-path="url(#SVGID_6_)" fill="#FFFFFF" points="8.556,17.323 7.774,18.251 7.774,18.773 8.712,17.739 8.581,17.639 	
		"/>
	<path clip-path="url(#SVGID_6_)" fill="#1D1D1B" d="M7.757,18.817v-0.573L8.57,17.28l0.027,0.352l0.139,0.105L8.725,17.75
		L7.757,18.817z M7.792,18.258v0.472l0.896-0.99l-0.123-0.091l-0.022-0.285L7.792,18.258z"/>
	<polygon clip-path="url(#SVGID_6_)" fill="#1D1D1B" points="7.025,18.561 6.992,18.561 6.992,18.141 5.99,17.915 5.99,18.299 
		5.957,18.299 5.957,17.908 5.665,17.842 5.665,18.22 5.632,18.22 5.632,17.833 5.131,17.723 5.139,17.69 7.754,18.276 
		7.747,18.309 7.025,18.148 	"/>
	<path clip-path="url(#SVGID_6_)" fill="#F6CD48" d="M6.924,14.554c0,0-0.103,0.133-0.112,0.228c0,0-0.063,0.141-0.117-0.058
		c0,0-0.067,0.121,0.021,0.226c0,0-0.039,0.11-0.144-0.057c0,0-0.059,0.146,0.108,0.247c0,0-0.028,0.092-0.141,0.009
		c0,0,0.272,0.451,0.739-0.009c0,0-0.16,0.045-0.123-0.032c0,0,0.128-0.089,0.091-0.207c0,0-0.152,0.123-0.128,0.007
		c0.025-0.116,0,0.014,0,0.014s0.091-0.043,0.037-0.174c0,0-0.112,0.147-0.12,0.034c0,0-0.021-0.138-0.083-0.196L6.924,14.554z"/>
	<path clip-path="url(#SVGID_6_)" fill="#1D1D1B" d="M6.875,15.364c-0.223,0-0.344-0.198-0.35-0.205l0.025-0.024
		c0.028,0.021,0.053,0.031,0.072,0.031s0.03-0.01,0.037-0.019c-0.161-0.104-0.102-0.26-0.102-0.262l0.013-0.03l0.016,0.028
		c0.049,0.077,0.077,0.086,0.087,0.086c0.012,0,0.02-0.011,0.023-0.018c-0.082-0.11-0.015-0.234-0.015-0.236l0.021-0.036
		l0.009,0.039c0.025,0.092,0.048,0.095,0.051,0.095c0.012,0,0.027-0.022,0.034-0.036c0.011-0.098,0.11-0.228,0.115-0.234
		l0.012-0.016l0.043,0.049c0.063,0.059,0.085,0.197,0.085,0.202c0.001,0.015,0.005,0.028,0.01,0.028
		c0.019,0,0.059-0.041,0.081-0.068l0.018-0.022l0.011,0.025c0.049,0.121-0.016,0.177-0.039,0.191
		c0.001,0.014,0.003,0.009,0.003,0.009c0.027,0,0.075-0.034,0.1-0.054l0.02-0.015l0.007,0.023c0.036,0.117-0.07,0.205-0.093,0.223
		c-0.003,0.006-0.002,0.012-0.002,0.013c0.001,0.001,0.01,0.005,0.029,0.005c0.034,0,0.078-0.012,0.078-0.012l0.016,0.028
		C7.148,15.292,7.008,15.364,6.875,15.364 M6.599,15.197c0.051,0.057,0.146,0.133,0.276,0.133c0.112,0,0.228-0.054,0.349-0.16
		c-0.009,0-0.019,0.001-0.028,0.001c-0.029,0-0.048-0.007-0.056-0.021C7.131,15.135,7.131,15.12,7.141,15.1l0.001-0.005l0.003-0.001
		c0.002-0.002,0.1-0.07,0.09-0.166c-0.026,0.021-0.068,0.046-0.097,0.046c-0.017,0-0.025-0.007-0.03-0.013
		c-0.003-0.005-0.005-0.008-0.007-0.014l-0.005,0.003l0.003-0.019c0-0.007,0.001-0.018,0.003-0.027
		c0.014-0.062,0.014-0.062,0.027-0.062h0.008l0.005,0.006c0.003,0.005,0.005,0.007,0.002,0.021c0.011-0.02,0.016-0.049,0.005-0.088
		c-0.023,0.024-0.059,0.06-0.088,0.06c-0.014,0-0.039-0.009-0.043-0.06c0,0-0.02-0.13-0.078-0.184l-0.015-0.018
		c-0.027,0.038-0.09,0.134-0.096,0.203l-0.001,0.005c-0.002,0.007-0.028,0.057-0.066,0.057c-0.027,0-0.048-0.021-0.068-0.07
		c-0.011,0.042-0.014,0.105,0.035,0.164l0.006,0.007l-0.003,0.01c-0.007,0.016-0.026,0.047-0.059,0.047
		c-0.029,0-0.059-0.022-0.093-0.069c-0.005,0.047,0.003,0.131,0.108,0.193l0.011,0.006l-0.003,0.012
		c-0.006,0.021-0.029,0.057-0.074,0.057C6.615,15.201,6.607,15.2,6.599,15.197"/>
	<polygon clip-path="url(#SVGID_6_)" fill="#F6CD48" points="5.56,17.014 5.314,17.282 5.324,17.632 7.621,18.177 7.604,17.747 
		8.288,16.917 7.898,16.802 	"/>
	<path clip-path="url(#SVGID_6_)" fill="#1D1D1B" d="M7.638,18.199l-0.021-0.005l-2.311-0.55l-0.008-0.369l0.253-0.278h0.007
		l2.341-0.212l0.003,0.001l0.415,0.121l-0.695,0.846L7.638,18.199z M5.339,17.619l2.265,0.538l-0.017-0.416l0.003-0.004l0.668-0.812
		l-0.362-0.107L5.567,17.03l-0.236,0.258L5.339,17.619z"/>
	<path clip-path="url(#SVGID_6_)" fill="#FFFFFF" d="M5.592,15.882c0,0,0.179-0.051,0.276-0.04l1.898-0.223
		c0,0,0.339-0.046,0.358-0.096v1.669c0,0-0.993-0.195-1.286-0.009c0,0-0.245-0.188-1.254,0.097L5.592,15.882z"/>
	<path clip-path="url(#SVGID_6_)" fill="#1D1D1B" d="M5.567,17.304l0.008-1.436l0.012-0.004c0.008,0,0.184-0.048,0.283-0.04
		l1.895-0.22c0.156-0.022,0.331-0.063,0.344-0.087l0.032,0.006v1.688l-0.02-0.003c-0.005-0.001-0.456-0.089-0.834-0.089
		c-0.211,0-0.357,0.026-0.439,0.078l-0.01,0.007l-0.009-0.007c-0.001-0.002-0.08-0.058-0.324-0.058
		c-0.237,0-0.547,0.053-0.917,0.156L5.567,17.304z M5.609,15.895l-0.008,1.363c0.363-0.1,0.668-0.151,0.904-0.151
		c0.211,0,0.305,0.042,0.333,0.059c0.089-0.052,0.241-0.079,0.449-0.079c0.335,0,0.728,0.069,0.821,0.086v-1.613
		c-0.075,0.039-0.253,0.066-0.339,0.078l-1.898,0.221H5.845C5.765,15.858,5.646,15.885,5.609,15.895"/>
	<path clip-path="url(#SVGID_6_)" fill="#FFFFFF" d="M5.747,15.669c0,0,0.144,0.025,0.463-0.121c0,0,0.589-0.343,0.645-0.101
		c0,0,0.293-0.242,0.538-0.071c0,0,0.383,0.123,0.488-0.009v1.701c0,0-0.83-0.25-1.043,0.075c0,0-0.268-0.303-1.091-0.035V15.669z"
		/>
	<path clip-path="url(#SVGID_6_)" fill="#1D1D1B" d="M6.84,17.171l-0.014-0.016c-0.001-0.001-0.13-0.14-0.469-0.14
		c-0.178,0-0.38,0.035-0.604,0.111L5.73,17.133v-1.484l0.02,0.004c0.001,0,0.01,0.001,0.027,0.001c0.062,0,0.197-0.016,0.425-0.121
		c0.013-0.007,0.325-0.189,0.518-0.189c0.087,0,0.126,0.038,0.143,0.077c0.048-0.036,0.184-0.123,0.334-0.123
		c0.074,0,0.142,0.021,0.202,0.064c0.021,0.006,0.17,0.051,0.299,0.051c0.084,0,0.142-0.02,0.171-0.055l0.029-0.037v1.771
		l-0.022-0.006c-0.003,0-0.306-0.091-0.588-0.091c-0.22,0-0.367,0.053-0.435,0.159L6.84,17.171z M6.357,16.983
		c0.294,0,0.436,0.098,0.479,0.136c0.079-0.105,0.231-0.157,0.452-0.157c0.243,0,0.502,0.066,0.576,0.085v-1.64
		c-0.037,0.024-0.094,0.04-0.166,0.04c-0.144,0-0.304-0.052-0.312-0.055l-0.003-0.001c-0.056-0.04-0.118-0.06-0.186-0.06
		c-0.174,0-0.33,0.129-0.331,0.13L6.845,15.48l-0.007-0.026c-0.011-0.051-0.05-0.075-0.118-0.075c-0.183,0-0.499,0.183-0.502,0.185
		c-0.255,0.116-0.402,0.128-0.454,0.125v1.398C5.983,17.016,6.184,16.983,6.357,16.983"/>
	<path clip-path="url(#SVGID_6_)" fill="#1D1D1B" d="M7.575,17.779l-1.738-0.373v0.357H5.803v-0.365l-0.055-0.01v0.343H5.715v-0.35
		l-0.387-0.083l0.008-0.033l2.246,0.48L7.575,17.779z M6.864,17.169H6.83l0.016-1.729H6.88L6.864,17.169z"/>
	<path clip-path="url(#SVGID_6_)" fill="#FFFFFF" d="M3.24,13.611c0-0.741,0.601-1.344,1.343-1.344h0.052
		c0.022-0.053,0.068-0.092,0.128-0.092h0.182c0.155,0,0.178,0.17,0.296,0.264c0.41,0.231,0.687,0.669,0.687,1.172
		c0,0.741-0.603,1.345-1.345,1.345C3.841,14.956,3.24,14.352,3.24,13.611"/>
	<path clip-path="url(#SVGID_6_)" fill="#1D1D1B" d="M4.583,14.972c-0.75,0-1.361-0.61-1.361-1.361c0-0.75,0.611-1.36,1.361-1.36
		c0.014,0,0.028,0,0.041,0.001c0.027-0.058,0.079-0.092,0.139-0.092h0.181c0.107,0,0.158,0.074,0.207,0.146
		c0.03,0.042,0.059,0.086,0.101,0.12c0.425,0.24,0.692,0.694,0.692,1.185C5.944,14.362,5.334,14.972,4.583,14.972 M4.583,12.286
		c-0.731,0-1.327,0.595-1.327,1.325c0,0.733,0.596,1.327,1.327,1.327c0.732,0,1.327-0.594,1.327-1.327
		c0-0.478-0.259-0.923-0.678-1.157c-0.046-0.037-0.078-0.083-0.109-0.128c-0.048-0.071-0.09-0.132-0.179-0.132H4.763
		c-0.049,0-0.092,0.029-0.113,0.081l-0.005,0.012l-0.011-0.001H4.583z"/>
	<path clip-path="url(#SVGID_6_)" fill="#FFFFFF" d="M3.45,13.611c0-0.625,0.507-1.134,1.133-1.134s1.133,0.509,1.133,1.134
		c0,0.626-0.507,1.134-1.133,1.134S3.45,14.237,3.45,13.611"/>
	<path clip-path="url(#SVGID_6_)" fill="#1D1D1B" d="M4.583,14.761c-0.634,0-1.149-0.516-1.149-1.151
		c0-0.633,0.515-1.148,1.149-1.148s1.149,0.516,1.149,1.148C5.732,14.246,5.217,14.761,4.583,14.761 M4.583,12.496
		c-0.615,0-1.117,0.501-1.117,1.114c0,0.616,0.502,1.116,1.117,1.116c0.616,0,1.116-0.5,1.116-1.116
		C5.699,12.997,5.199,12.496,4.583,12.496"/>
	<path clip-path="url(#SVGID_6_)" fill="#1D1D1B" d="M4.634,12.491l-0.028-0.021c0.032-0.043,0.067-0.062,0.106-0.083
		c-0.009-0.01-0.018-0.018-0.026-0.024c-0.035-0.033-0.063-0.061-0.112-0.09l0.018-0.027c0.051,0.03,0.083,0.059,0.117,0.093
		c0.013,0.011,0.027,0.024,0.044,0.039l0.017,0.016l-0.038,0.021C4.691,12.434,4.661,12.451,4.634,12.491"/>
	<path clip-path="url(#SVGID_6_)" fill="#1D1D1B" d="M4.815,12.306c0-0.026,0.021-0.049,0.048-0.049
		c0.026,0,0.047,0.022,0.047,0.049c0,0.025-0.021,0.047-0.047,0.047C4.836,12.353,4.815,12.332,4.815,12.306"/>
	<path clip-path="url(#SVGID_6_)" fill="#1D1D1B" d="M5.606,14.128H3.572l0.016-0.024l0.986-1.617l0.014,0.021L5.606,14.128z
		 M3.632,14.094h1.913l-0.971-1.545L3.632,14.094z M4.583,13.982c-0.205,0-0.372-0.166-0.372-0.371c0-0.204,0.167-0.371,0.372-0.371
		s0.371,0.167,0.371,0.371C4.954,13.816,4.788,13.982,4.583,13.982 M4.583,13.274c-0.186,0-0.337,0.15-0.337,0.337
		s0.151,0.339,0.337,0.339s0.337-0.152,0.337-0.339S4.769,13.274,4.583,13.274"/>
	<path clip-path="url(#SVGID_6_)" fill="#1D1D1B" d="M4.47,13.611c0-0.067,0.055-0.121,0.123-0.121c0.067,0,0.121,0.054,0.121,0.121
		s-0.054,0.122-0.121,0.122C4.525,13.733,4.47,13.678,4.47,13.611"/>
	<path clip-path="url(#SVGID_6_)" fill="#1D1D1B" d="M4.638,13.987c-0.219,0-0.45-0.103-0.685-0.305l-0.057-0.06l0.008-0.013
		c0.003-0.004,0.271-0.373,0.675-0.373c0.237,0,0.472,0.125,0.7,0.372l0.009,0.011L5.28,13.63
		C5.278,13.633,5.045,13.987,4.638,13.987 M3.94,13.621l0.036,0.036c0.227,0.195,0.45,0.297,0.662,0.297
		c0.349,0,0.566-0.273,0.608-0.331c-0.219-0.234-0.443-0.353-0.667-0.353C4.231,13.27,3.988,13.558,3.94,13.621"/>
	<path clip-path="url(#SVGID_6_)" fill="#E03829" d="M5.42,8.705c0,0-0.402,0.151-0.251-0.219c0,0,0.101-0.335,0.537-0.268
		c0,0,0.286,0.033,0.05,0.336l2.723,4.198l0.033,0.135l-0.135-0.051L5.42,8.705z"/>
	<path clip-path="url(#SVGID_6_)" fill="#1D1D1B" d="M8.536,12.916L8.367,12.85l-0.003-0.004l-2.95-4.122
		c-0.026,0.01-0.089,0.028-0.151,0.028c-0.06,0-0.102-0.019-0.126-0.053C5.106,8.654,5.111,8.582,5.153,8.48
		c0-0.002,0.09-0.288,0.442-0.288c0.037,0,0.075,0.003,0.114,0.008c0.004,0.001,0.112,0.014,0.147,0.098
		c0.027,0.065,0,0.151-0.079,0.256l2.717,4.194L8.536,12.916z M8.388,12.823l0.1,0.037l-0.025-0.101L5.736,8.552l0.007-0.009
		C5.82,8.447,5.847,8.366,5.825,8.311c-0.027-0.064-0.12-0.075-0.12-0.075c-0.039-0.008-0.076-0.01-0.11-0.01
		c-0.326,0-0.407,0.254-0.411,0.266C5.148,8.581,5.141,8.646,5.166,8.681c0.016,0.024,0.049,0.037,0.097,0.037
		c0.072,0,0.151-0.029,0.152-0.029l0.012-0.004l0.008,0.01L8.388,12.823z"/>
	<path clip-path="url(#SVGID_6_)" fill="#FFFFFF" d="M6.245,8.72c0,0-0.371-0.033-0.354,0.875c0,0-0.033,0.738,0.521,0.705
		c0,0-0.051,0.084,0.336-0.049c0,0,0.152-0.086,0.302,0.268c0,0,0.118-0.135,0.118-0.268c0,0,0.017-0.354-0.437-0.336
		c0,0-0.486,0.1-0.486-0.287c0,0,0.016-0.369,0.134-0.369c0,0,0.184,0.252,0.251,0.084c0,0,0.219-0.588-0.218-0.623H6.245z"/>
	<path clip-path="url(#SVGID_6_)" fill="#1D1D1B" d="M7.045,10.55l-0.01-0.025c-0.144-0.334-0.278-0.26-0.279-0.26
		c-0.15,0.052-0.252,0.078-0.307,0.078c-0.028,0-0.045-0.006-0.052-0.021c-0.001-0.001-0.003-0.003-0.003-0.005
		c-0.138,0.007-0.252-0.038-0.338-0.129C5.858,9.983,5.873,9.61,5.874,9.593c-0.009-0.494,0.1-0.711,0.191-0.805
		c0.092-0.094,0.18-0.084,0.18-0.084h0.167c0.11,0.01,0.189,0.051,0.236,0.125c0.119,0.186,0.003,0.506-0.002,0.52
		C6.623,9.406,6.588,9.417,6.563,9.417c-0.078,0-0.167-0.109-0.192-0.141c-0.07,0.014-0.105,0.221-0.11,0.352
		c0,0.106,0.039,0.183,0.115,0.229C6.446,9.9,6.536,9.91,6.599,9.91c0.071,0,0.128-0.012,0.128-0.012
		c0.014,0,0.024-0.001,0.035-0.001c0.146,0,0.257,0.039,0.33,0.116c0.098,0.102,0.093,0.232,0.093,0.238
		c0,0.139-0.118,0.273-0.122,0.278L7.045,10.55z M6.79,10.224c0.066,0,0.166,0.047,0.264,0.263c0.031-0.042,0.097-0.14,0.097-0.235
		c0-0.004,0.004-0.123-0.084-0.216C6.996,9.96,6.883,9.925,6.732,9.931c0,0-0.057,0.012-0.133,0.012
		c-0.098,0-0.179-0.02-0.241-0.057C6.271,9.833,6.227,9.748,6.227,9.628c0.002-0.041,0.021-0.387,0.151-0.387h0.009l0.005,0.006
		C6.42,9.286,6.504,9.384,6.563,9.384c0.008,0,0.033,0,0.052-0.049c0,0,0.115-0.315,0.005-0.486c-0.042-0.065-0.112-0.104-0.21-0.11
		H6.245H6.239c-0.018,0-0.082,0.005-0.15,0.073C6.001,8.901,5.899,9.11,5.908,9.595c0,0.004-0.015,0.375,0.173,0.57
		c0.082,0.086,0.191,0.127,0.329,0.118l0.032-0.002l-0.016,0.026c0.003,0,0.009,0.002,0.023,0.002c0.034,0,0.114-0.014,0.294-0.076
		C6.743,10.234,6.759,10.224,6.79,10.224"/>
	<path clip-path="url(#SVGID_6_)" fill="#FFFFFF" d="M6.681,10.486c0,0-0.186,0.234-0.169,0.369c0,0,0.034,0.286,0.353,0.286
		c0,0,0.538-0.067,0.589,0.033c0,0,0.386-0.353-0.186-0.47c0,0-0.336,0.117-0.403,0.016L6.681,10.486z"/>
	<path clip-path="url(#SVGID_6_)" fill="#1D1D1B" d="M7.448,11.202l-0.009-0.021c-0.008-0.014-0.044-0.047-0.238-0.047
		c-0.157,0-0.331,0.022-0.331,0.022H6.868c-0.333,0.001-0.372-0.296-0.372-0.3c-0.018-0.141,0.164-0.372,0.171-0.383l0.014-0.016
		l0.197,0.252c0.02,0.027,0.068,0.034,0.105,0.034c0.117,0,0.279-0.055,0.28-0.057l0.005-0.002l0.004,0.001
		c0.186,0.039,0.294,0.105,0.319,0.203c0.041,0.143-0.12,0.289-0.126,0.296L7.448,11.202z M7.201,11.101
		c0.167,0,0.229,0.023,0.254,0.048C7.491,11.112,7.587,11,7.56,10.898c-0.023-0.082-0.12-0.141-0.291-0.176
		c-0.027,0.009-0.172,0.057-0.286,0.057c-0.066,0-0.11-0.018-0.131-0.049l-0.171-0.219c-0.041,0.058-0.165,0.234-0.152,0.342
		c0.002,0.011,0.036,0.271,0.336,0.271C6.865,11.125,7.042,11.101,7.201,11.101"/>
	<path clip-path="url(#SVGID_6_)" fill="#FFFFFF" d="M7.168,11.191c0,0-0.335,0.354,0.017,0.537c0,0,0.37,0.066,0.336,0.285
		c0,0,0.034,0.304,0.117,0.304c0,0,0.134,0.084,0.134,0.185c0,0,0.018,0.184,0.119,0c0,0,0.1-0.354-0.051-0.42
		c-0.151-0.068-0.084-0.22-0.084-0.22s-0.034-0.317-0.27-0.386c0,0-0.067,0.033-0.2-0.168L7.168,11.191z"/>
	<path clip-path="url(#SVGID_6_)" fill="#1D1D1B" d="M7.815,12.6c-0.048,0-0.058-0.081-0.059-0.099c0-0.083-0.103-0.155-0.123-0.169
		c-0.091-0.009-0.123-0.265-0.129-0.317v-0.002V12.01c0.03-0.199-0.319-0.265-0.322-0.265l-0.005-0.002
		c-0.097-0.052-0.154-0.119-0.167-0.203c-0.029-0.176,0.139-0.354,0.145-0.361l0.012-0.012l0.13,0.129
		c0.103,0.154,0.161,0.166,0.177,0.166c0.004,0,0.006-0.002,0.006-0.002l0.006-0.002l0.006,0.002c0.243,0.069,0.28,0.387,0.28,0.401
		l0.001,0.004l-0.001,0.002c-0.004,0.007-0.058,0.139,0.074,0.198c0.163,0.072,0.064,0.425,0.06,0.44
		C7.871,12.571,7.843,12.6,7.815,12.6 M7.538,12.014c0.012,0.116,0.053,0.285,0.1,0.285h0.005l0.003,0.003
		C7.652,12.306,7.79,12.393,7.79,12.5c0.003,0.033,0.015,0.066,0.025,0.066c0.004,0,0.023-0.003,0.06-0.074
		c0.026-0.091,0.071-0.347-0.043-0.396c-0.149-0.067-0.104-0.209-0.094-0.236c-0.004-0.036-0.047-0.305-0.251-0.367
		c-0.004,0-0.008,0.002-0.013,0.002c-0.039,0-0.105-0.031-0.203-0.177l-0.103-0.104c-0.037,0.045-0.147,0.187-0.125,0.32
		c0.012,0.071,0.061,0.133,0.147,0.178C7.226,11.718,7.57,11.791,7.538,12.014"/>
	<path clip-path="url(#SVGID_6_)" fill="#1D1D1B" d="M6.462,8.991c0-0.047,0.034-0.084,0.076-0.084s0.076,0.037,0.076,0.084
		c0,0.046-0.034,0.084-0.076,0.084S6.462,9.037,6.462,8.991"/>
	<polygon clip-path="url(#SVGID_6_)" fill="#1D1D1B" points="1.738,16.7 1.008,14.567 0.975,14.504 0.985,14.5 0.983,14.494 
		0.986,14.494 0.983,14.488 0.991,14.484 1.008,14.458 2.798,15.597 2.779,15.626 1.337,14.708 2.62,15.638 2.601,15.666 
		1.299,14.721 2.442,15.687 2.419,15.713 1.364,14.821 2.319,15.749 2.295,15.772 1.354,14.855 2.222,15.822 2.198,15.844 
		1.349,14.903 2.119,15.893 2.092,15.916 1.257,14.839 2.044,15.996 2.016,16.014 1.308,14.973 1.964,16.1 1.935,16.118 
		1.143,14.755 1.892,16.214 1.862,16.229 1.258,15.053 1.813,16.372 1.782,16.385 1.158,14.905 1.77,16.689 	"/>
	<path clip-path="url(#SVGID_6_)" fill="#373D5A" d="M1.958,16.729c0-0.503,0.408-0.912,0.912-0.912s0.913,0.409,0.913,0.912
		c0,0.504-0.409,0.913-0.913,0.913S1.958,17.233,1.958,16.729"/>
	<path clip-path="url(#SVGID_6_)" fill="#1D1D1B" d="M2.87,17.659c-0.512,0-0.929-0.419-0.929-0.93c0-0.513,0.417-0.929,0.929-0.929
		c0.513,0,0.93,0.416,0.93,0.929C3.8,17.24,3.383,17.659,2.87,17.659 M2.87,15.833c-0.494,0-0.895,0.4-0.895,0.896
		c0,0.494,0.401,0.896,0.895,0.896s0.896-0.401,0.896-0.896C3.766,16.234,3.364,15.833,2.87,15.833"/>
	<path clip-path="url(#SVGID_6_)" fill-rule="evenodd" clip-rule="evenodd" fill="#FFFFFF" d="M2.479,15.928
		c0.05,0.032,0.042,0.088,0.081,0.131H2.66c0.011-0.055,0.033-0.113,0.09-0.113c0.034,0,0.052,0.005,0.086,0.007
		c0.008,0.052,0,0.078,0,0.129c0,0.031,0.006,0.049,0.02,0.075c-0.103,0.033-0.189,0.018-0.261,0.095
		c-0.021,0.023-0.029,0.062-0.061,0.062c-0.031,0-0.049-0.006-0.078-0.01v-0.09c0-0.021,0.012-0.03,0.016-0.051
		c-0.021-0.005-0.035-0.007-0.058-0.007c-0.042,0-0.079,0.036-0.079,0.078c0,0.236,0.213,0.309,0.38,0.475
		c0.095,0.096,0.253,0.103,0.253,0.237c0,0.061-0.09,0.048-0.116,0.104c-0.092,0.191-0.066,0.378-0.246,0.489
		c-0.003-0.013-0.02-0.018-0.02-0.034c0-0.038,0.025-0.057,0.025-0.095v-0.21c0-0.023,0.016-0.036,0.016-0.06v-0.147
		c-0.125-0.023-0.204-0.127-0.204-0.251c0-0.054,0.041-0.078,0.041-0.132c0-0.19-0.3-0.196-0.3-0.386
		c0-0.053,0.065-0.054,0.097-0.094c0.084-0.101,0.157-0.148,0.283-0.196v0.025L2.479,15.928z"/>
	<path clip-path="url(#SVGID_6_)" fill="#FFFFFF" d="M2.896,15.817c0,0.042-0.003,0.062-0.003,0.105
		c0,0.081,0.079,0.104,0.148,0.146c0-0.058,0.01-0.091,0.04-0.141C3.013,15.884,2.975,15.842,2.896,15.817"/>
	<path clip-path="url(#SVGID_6_)" fill="#FFFFFF" d="M3.3,16.03c0.014,0.063,0.082,0.079,0.082,0.144c0,0.07-0.09,0.085-0.09,0.156
		c0,0.033,0.032,0.045,0.032,0.08c0,0.027-0.04,0.036-0.04,0.062c0,0.121,0.276,0.025,0.276,0.146c0,0.043-0.065,0.046-0.065,0.089
		c0,0.055,0.03,0.087,0.065,0.129c-0.013,0.012-0.023,0.022-0.033,0.041v0.16c0.061-0.007,0.097,0,0.157,0
		c0.026-0.111,0.01-0.174,0.049-0.278L3.717,16.71v-0.18c0-0.078-0.055-0.11-0.089-0.18C3.55,16.202,3.493,16.109,3.34,16.03H3.3z"
		/>
	<polygon clip-path="url(#SVGID_6_)" fill="#F6CD48" points="1.224,16.819 0.908,17.672 1.332,16.947 	"/>
	<path clip-path="url(#SVGID_6_)" fill="#1D1D1B" d="M0.922,17.682l-0.031-0.016l0.328-0.88l0.133,0.16L0.922,17.682z M1.23,16.851
		l-0.24,0.646l0.322-0.548L1.23,16.851z"/>
	<polygon clip-path="url(#SVGID_6_)" fill="#F6CD48" points="1.447,16.836 1.764,17.691 1.34,16.967 	"/>
	<path clip-path="url(#SVGID_6_)" fill="#1D1D1B" d="M1.75,17.7l-0.43-0.734l0.133-0.161l0.328,0.883L1.75,17.7z M1.361,16.968
		l0.321,0.549l-0.24-0.647L1.361,16.968z"/>
	<polygon clip-path="url(#SVGID_6_)" fill="#FFFFFF" points="0.819,17.682 0.819,18.071 3.319,18.071 3.319,18.885 3.677,18.885 
		3.677,17.69 	"/>
	<path clip-path="url(#SVGID_6_)" fill="#1D1D1B" d="M3.695,18.903H3.3v-0.814H0.801v-0.424h0.017l2.877,0.009V18.903z
		 M3.335,18.869H3.66v-1.162l-2.825-0.009v0.357h2.5V18.869z"/>
	<polygon clip-path="url(#SVGID_6_)" fill="#FFFFFF" points="1.235,14.77 1.055,14.638 0.875,14.77 0.943,14.557 0.764,14.425 
		0.986,14.425 1.055,14.213 1.125,14.425 1.347,14.425 1.167,14.557 	"/>
	<path clip-path="url(#SVGID_6_)" fill="#F6CD48" d="M1.16,16.8c0-0.096,0.077-0.172,0.172-0.172c0.094,0,0.172,0.076,0.172,0.172
		c0,0.095-0.078,0.172-0.172,0.172C1.237,16.972,1.16,16.895,1.16,16.8"/>
	<path clip-path="url(#SVGID_6_)" fill="#1D1D1B" d="M1.332,16.989c-0.104,0-0.189-0.084-0.189-0.189
		c0-0.104,0.085-0.188,0.189-0.188s0.188,0.084,0.188,0.188C1.52,16.905,1.436,16.989,1.332,16.989 M1.332,16.645
		c-0.086,0-0.156,0.068-0.156,0.154c0,0.084,0.07,0.155,0.156,0.155c0.085,0,0.155-0.071,0.155-0.155
		C1.487,16.713,1.417,16.645,1.332,16.645"/>
</g>
</svg>
